<?xml version="1.0" standalone="no"?>
<!DOCTYPE svg PUBLIC "-//W3C//DTD SVG 20010904//EN"
 "http://www.w3.org/TR/2001/REC-SVG-20010904/DTD/svg10.dtd">
<svg version="1.0" xmlns="http://www.w3.org/2000/svg"
 width="1024.000000pt" height="1024.000000pt" viewBox="0 0 1024.000000 1024.000000"
 preserveAspectRatio="xMidYMid meet">
<metadata>
Created by potrace 1.11, written by Peter Selinger 2001-2013
</metadata>
<g transform="translate(0.000000,1024.000000) scale(0.100000,-0.100000)"
fill="#000000" stroke="none">
<path d="M2808 10235 c-1 -1 -25 -5 -53 -9 -70 -9 -150 -23 -150 -26 0 -1 -11
-3 -25 -6 -25 -4 -141 -39 -170 -51 -8 -3 -23 -8 -33 -10 -49 -9 -350 -146
-432 -196 -109 -66 -235 -151 -235 -158 0 -5 -5 -9 -11 -9 -6 0 -32 -17 -57
-37 -26 -21 -52 -42 -59 -48 -100 -78 -276 -258 -369 -375 -32 -41 -61 -77
-64 -80 -3 -3 -9 -12 -15 -21 -5 -9 -31 -47 -56 -85 -25 -38 -56 -87 -69 -109
-13 -22 -27 -42 -30 -45 -7 -7 -28 -53 -26 -61 0 -3 -5 -14 -13 -23 -19 -23
-61 -106 -61 -121 0 -7 -7 -18 -15 -25 -8 -7 -15 -18 -15 -25 0 -7 -7 -29 -15
-49 -8 -20 -16 -39 -16 -43 0 -5 -5 -14 -11 -20 -6 -7 -8 -13 -5 -13 3 0 -7
-32 -23 -70 -16 -39 -24 -67 -17 -63 9 5 9 3 0 -8 -12 -14 -81 -286 -81 -319
0 -8 -3 -28 -7 -45 -38 -178 -41 -595 -5 -820 18 -115 21 -131 41 -211 11 -45
22 -90 24 -100 2 -11 18 -59 35 -109 17 -49 32 -94 34 -100 21 -69 157 -361
175 -375 3 -3 17 -25 31 -50 29 -54 190 -291 210 -310 3 -3 10 -14 17 -25 6
-11 34 -56 61 -100 90 -145 244 -445 257 -500 2 -9 16 -47 32 -85 3 -8 7 -19
9 -25 1 -5 12 -35 24 -65 11 -30 30 -85 40 -123 11 -37 30 -100 41 -140 21
-69 56 -211 64 -252 2 -11 11 -56 20 -100 26 -129 43 -230 60 -360 2 -22 7
-56 10 -75 3 -19 7 -62 10 -95 3 -33 8 -80 11 -105 2 -25 7 -70 10 -100 7 -87
18 -192 29 -295 11 -101 17 -153 20 -195 2 -25 4 -45 5 -45 1 0 4 -18 5 -40 4
-39 9 -80 20 -160 3 -22 7 -62 10 -90 3 -27 8 -68 11 -90 4 -22 8 -58 10 -80
1 -22 3 -40 4 -40 2 0 6 -30 15 -105 7 -64 12 -95 14 -95 1 0 4 -16 5 -35 2
-19 7 -55 11 -80 4 -25 8 -54 10 -65 16 -121 21 -153 25 -157 1 -2 4 -21 5
-43 2 -22 4 -40 5 -40 1 0 3 -16 6 -35 5 -42 12 -75 14 -75 1 0 4 -13 6 -30 4
-33 6 -49 23 -145 6 -36 13 -74 15 -85 1 -11 6 -31 9 -45 4 -14 9 -38 11 -55
7 -41 15 -85 22 -115 9 -39 14 -63 19 -95 5 -37 11 -69 24 -120 13 -53 34
-146 37 -165 1 -8 10 -46 19 -85 9 -38 19 -83 21 -99 3 -16 9 -39 13 -50 5
-12 7 -29 6 -38 -2 -10 0 -18 5 -18 4 0 11 -24 15 -53 8 -52 11 -65 14 -69 2
-2 5 -14 7 -28 3 -14 14 -63 25 -110 12 -47 23 -96 25 -110 3 -14 7 -33 10
-42 3 -9 6 -25 8 -35 23 -118 81 -227 166 -313 83 -83 94 -91 173 -129 111
-53 258 -73 367 -50 30 6 63 12 73 12 9 1 17 5 17 9 0 4 5 8 11 8 16 0 103 43
107 53 2 4 10 7 17 7 15 0 174 150 159 150 -5 0 -2 6 6 13 36 29 96 184 126
326 3 14 7 28 9 31 2 4 7 20 9 36 3 16 17 74 31 129 14 55 28 111 31 125 3 14
7 32 9 40 2 8 4 16 5 18 2 1 3 5 4 10 9 37 17 70 20 87 2 11 9 32 15 48 6 15
9 27 7 27 -2 0 2 21 10 46 7 25 13 49 12 52 -1 4 1 14 4 22 6 15 35 129 43
165 2 11 20 85 40 165 35 138 39 156 49 197 2 10 12 47 21 83 9 36 18 72 20
80 2 8 24 96 50 195 25 99 47 189 49 200 2 11 4 20 6 20 1 0 3 9 5 20 2 11 15
67 29 125 15 58 29 114 31 125 2 11 4 20 5 20 1 0 3 7 5 15 2 8 6 25 9 37 3
13 8 32 11 44 2 11 7 29 10 39 3 10 8 27 10 37 2 10 11 47 20 83 9 36 18 75
21 87 2 12 8 33 13 45 5 13 9 26 9 31 1 17 15 77 38 162 21 75 85 227 104 245
3 3 18 23 34 45 65 89 203 205 291 244 59 27 145 59 145 56 0 -3 12 0 28 6 50
20 240 29 312 16 288 -53 509 -223 630 -482 18 -39 204 -749 226 -862 2 -12 9
-34 14 -48 5 -14 8 -25 6 -25 -2 0 2 -20 10 -45 7 -25 11 -45 8 -45 -3 0 0 -8
5 -19 6 -10 13 -32 16 -49 3 -17 16 -71 29 -121 13 -49 22 -92 18 -95 -3 -3
-1 -6 4 -6 6 0 10 -10 11 -22 1 -13 31 -140 68 -283 37 -143 67 -268 66 -277
0 -10 3 -18 7 -18 4 0 8 -8 8 -17 1 -19 6 -40 24 -108 6 -22 13 -51 16 -65 8
-40 83 -341 94 -380 17 -58 71 -274 74 -295 19 -117 67 -242 125 -326 70 -103
234 -219 331 -235 14 -3 32 -7 40 -11 8 -3 56 -7 106 -9 178 -6 319 50 444
176 61 61 87 96 118 155 23 47 66 182 64 207 0 10 3 20 8 23 5 3 7 12 3 20 -3
8 0 15 7 15 6 0 8 4 5 10 -3 5 -1 27 4 47 14 53 42 173 47 203 3 14 8 34 11
45 4 11 7 22 8 25 0 3 4 21 8 40 4 19 9 44 11 55 2 11 9 40 16 65 7 25 14 56
16 70 2 14 7 36 11 50 8 31 6 25 31 140 12 52 23 109 26 125 3 17 8 41 11 55
3 14 8 36 10 50 2 14 13 70 25 125 11 55 23 116 25 135 3 19 7 46 10 60 3 14
9 50 15 80 5 30 11 64 13 75 3 11 8 43 12 70 4 28 9 59 11 70 1 11 5 35 8 53
3 18 7 45 11 60 3 15 7 45 10 67 2 22 6 54 9 71 6 30 11 69 21 142 7 55 14
102 20 142 3 19 8 51 11 70 3 19 5 42 6 50 0 8 6 60 14 115 7 55 16 125 18
155 3 30 7 71 10 90 5 34 8 62 22 185 4 33 7 79 8 102 1 24 3 43 6 43 3 0 5
12 6 28 0 25 3 51 19 207 5 49 8 75 20 205 3 36 8 81 11 100 3 19 7 55 9 80 2
25 11 90 20 145 8 54 18 115 20 135 3 19 7 46 10 60 3 14 8 41 11 60 11 59 12
62 33 155 12 50 24 99 26 110 3 11 7 29 10 40 2 11 11 45 20 75 9 30 18 62 20
70 6 27 72 224 90 270 48 126 100 245 107 248 4 2 8 11 8 21 0 9 5 22 12 29 7
7 8 12 3 12 -6 0 -5 4 1 8 5 4 25 36 42 72 18 36 37 72 42 80 5 8 33 56 62
105 29 50 56 95 60 100 45 57 208 296 208 304 0 6 4 11 9 11 5 0 11 8 15 18 3
9 15 31 25 47 32 48 131 243 131 256 0 7 7 20 15 29 8 9 16 25 18 36 2 10 9
33 16 49 48 122 105 303 117 375 3 14 11 57 19 95 8 39 17 90 20 115 2 25 8
74 12 110 9 70 9 446 0 520 -3 25 -9 74 -13 110 -4 36 -7 68 -6 73 1 4 -3 7
-9 7 -5 0 -8 4 -5 9 3 5 1 31 -4 57 -6 27 -13 63 -16 79 -6 33 -32 131 -41
155 -3 8 -7 22 -8 30 -4 25 -71 211 -97 270 -14 30 -26 58 -27 62 -6 22 -116
224 -123 226 -4 2 -8 8 -8 13 0 9 -122 196 -153 235 -102 126 -180 214 -257
289 -121 117 -119 116 -165 150 -22 16 -47 37 -55 45 -24 25 -160 120 -170
120 -6 0 -10 5 -10 10 0 6 -4 10 -9 10 -6 0 -29 13 -53 28 -24 16 -63 40 -88
53 -25 13 -46 27 -48 32 -2 4 -9 7 -15 7 -7 0 -48 18 -92 41 -44 22 -81 40
-83 39 -1 0 -19 7 -40 16 -53 22 -144 54 -167 59 -11 3 -31 9 -45 15 -14 5
-34 11 -45 13 -11 2 -28 7 -37 12 -10 4 -29 8 -43 9 -14 0 -25 3 -25 6 0 3 -8
6 -17 7 -10 1 -31 4 -48 7 -141 28 -420 29 -565 2 -23 -5 -45 -9 -110 -22 -14
-3 -34 -8 -45 -11 -11 -4 -22 -7 -25 -8 -51 -5 -322 -112 -444 -175 -144 -74
-180 -94 -186 -101 -3 -3 -20 -15 -39 -25 -45 -25 -109 -66 -136 -86 -83 -64
-157 -110 -233 -148 l-92 -46 77 -51 c267 -174 344 -223 352 -223 5 0 11 -4
13 -8 2 -5 32 -26 67 -48 83 -50 140 -107 171 -169 20 -42 24 -64 24 -135 -1
-121 -36 -190 -134 -262 -93 -69 -259 -72 -350 -8 -15 11 -33 20 -38 20 -6 0
-12 4 -14 8 -2 7 -61 46 -172 115 -11 7 -55 36 -99 65 -43 28 -81 52 -82 52
-2 0 -38 23 -79 50 -42 28 -80 50 -85 50 -5 0 -11 4 -13 8 -1 5 -59 44 -128
88 -169 106 -253 161 -267 173 -7 6 -16 11 -20 11 -4 0 -26 14 -47 30 -22 17
-43 30 -48 30 -5 0 -18 9 -30 20 -12 11 -28 20 -35 20 -7 0 -13 5 -13 10 0 6
-6 10 -14 10 -7 0 -19 6 -25 14 -6 7 -41 31 -76 52 -36 20 -65 41 -65 46 0 4
-5 8 -12 8 -6 0 -34 15 -62 34 -155 102 -256 166 -266 166 -5 0 -10 4 -10 8 0
5 -12 15 -27 23 -16 8 -37 22 -47 32 -11 9 -24 17 -29 17 -5 0 -34 17 -65 38
-100 68 -135 89 -215 131 -42 22 -78 40 -80 40 -3 -1 -46 16 -92 36 -62 26
-175 64 -175 58 0 -3 -6 -1 -12 4 -12 9 -99 33 -138 38 -8 1 -26 7 -40 12 -14
6 -31 8 -37 6 -7 -3 -21 -2 -30 2 -10 4 -29 9 -43 11 -34 5 -367 13 -372 9z"/>
</g>
</svg>
