<?xml version="1.0" encoding="utf-8"?>
<!-- Generator: Adobe Illustrator 23.0.1, SVG Export Plug-In . SVG Version: 6.00 Build 0)  -->
<svg version="1.1" id="Layer_1" xmlns="http://www.w3.org/2000/svg" xmlns:xlink="http://www.w3.org/1999/xlink" x="0px" y="0px"
	 viewBox="0 0 576 144.3" style="enable-background:new 0 0 576 144.3;" xml:space="preserve">
<style type="text/css">
	.st0{display:none;fill:#284669;}
	.st1{fill:url(#SVGID_1_);}
	.st2{fill:url(#SVGID_2_);}
	.st3{fill:#D9CFAB;}
	.st4{fill:none;stroke:#D9CFAB;stroke-width:2;stroke-miterlimit:10;}
</style>
<rect x="0.5" class="st0" width="575.5" height="144.3"/>
<g>
	
		<linearGradient id="SVGID_1_" gradientUnits="userSpaceOnUse" x1="16.6106" y1="65.3044" x2="122.2359" y2="137.1467" gradientTransform="matrix(1 0 0 -1 0 170.1053)">
		<stop  offset="0" style="stop-color:#936527"/>
		<stop  offset="1" style="stop-color:#FDF5A5"/>
	</linearGradient>
	<path class="st1" d="M123.7,33.9c0,3.1-0.3,6.2-0.8,9c-0.4,2.4-0.9,4.6-1.4,6.4c-2.8,11.1-21.8,43.6-22.5,58.1
		c-0.8,15.5,3.5,23.7,0,24.1c-20.2,2.3-26.5-41.2-27.4-47.9c1,14.9-24.6,46.8-30.4,46.6c-0.4,0-0.7-0.1-0.9-0.3
		c-3.7-2.7,4.7-23.1-8.7-46.1c-14.2-24.5-27-37.5-21-52.4c1.4-3.4,3-6.2,4.9-8.3c5.8-6.4,14.3-7.5,26.7-3.6
		c5.1,1.6,10.9,4.1,17.4,7.4c28.4,14.4,47.6-1.6,47.6-1.6c-35.2,9.7-41.4-2.6-41.4-2.6s13.9-12.1,38.3-10.5c0.3,0,0.5,0,0.8,0.1
		C120,13.5,123.7,23.8,123.7,33.9z"/>
	
		<linearGradient id="SVGID_2_" gradientUnits="userSpaceOnUse" x1="16.6787" y1="90.7956" x2="53.1285" y2="99.8375" gradientTransform="matrix(1 0 0 -1 0 170.1053)">
		<stop  offset="0" style="stop-color:#8B5924"/>
		<stop  offset="1" style="stop-color:#FDF5A5;stop-opacity:0"/>
	</linearGradient>
	<path class="st2" d="M40.3,129.9c-3.7-2.7,4.7-23.1-8.7-46.1c-14.2-24.5-27-37.5-21-52.4c1.4-3.4,3-6.2,4.9-8.3
		c-0.4,4.5,0.7,15,4,20.2c7.1,11.1,29.6,24,31.8,40.3C52.9,94.6,45.8,117,40.3,129.9z"/>
</g>
<g>
	<path class="st3" d="M171.1,20.6h18c2.3,0,4.6,0.2,6.9,0.7c2.3,0.5,4.4,1.3,6.3,2.5c1.8,1.2,3.4,2.7,4.5,4.7c1.2,2,1.7,4.5,1.7,7.5
		c0,3.2-1,6-2.9,8.3c-1.9,2.4-4.5,3.9-7.8,4.7v0.2c3.9,0.5,7.2,2,9.7,4.6c2.6,2.6,3.9,6.1,3.9,10.5c0,2.5-0.5,4.8-1.6,6.9
		s-2.5,3.8-4.5,5.3c-1.9,1.4-4.3,2.6-7.1,3.4c-2.8,0.8-5.9,1.2-9.4,1.2h-17.9L171.1,20.6L171.1,20.6z M177.3,47.1h12.4
		c1.5,0,3-0.2,4.5-0.5c1.5-0.3,2.9-0.9,4.1-1.7c1.3-0.8,2.3-1.9,3-3.3c0.8-1.4,1.1-3,1.1-5c0-1.9-0.4-3.6-1.1-4.9
		c-0.8-1.3-1.8-2.4-3.1-3.3c-1.3-0.9-2.8-1.5-4.6-1.8c-1.8-0.4-3.6-0.6-5.6-0.6h-10.7L177.3,47.1L177.3,47.1z M177.3,75.8h11.4
		c2.2,0,4.3-0.2,6.4-0.6c2-0.4,3.8-1.1,5.3-2c1.5-0.9,2.7-2.2,3.6-3.7c0.9-1.5,1.4-3.3,1.4-5.4c0-4-1.4-7-4.1-8.9
		c-2.7-2-6.5-2.9-11.5-2.9h-12.5L177.3,75.8L177.3,75.8z"/>
	<path class="st3" d="M288,50.9c0,4.6-0.8,8.8-2.4,12.7c-1.6,3.9-3.8,7.2-6.6,10c-2.8,2.8-6.1,5-10,6.6c-3.8,1.6-8,2.4-12.5,2.4
		c-4.5,0-8.7-0.8-12.5-2.4c-3.8-1.6-7.2-3.8-10-6.6c-2.8-2.8-5-6.2-6.6-10c-1.6-3.9-2.4-8.1-2.4-12.7s0.8-8.8,2.4-12.7
		c1.6-3.9,3.8-7.2,6.6-10c2.8-2.8,6.1-5,10-6.6c3.8-1.6,8-2.4,12.5-2.4c4.5,0,8.7,0.8,12.5,2.4c3.8,1.6,7.2,3.8,10,6.6
		c2.8,2.8,5,6.2,6.6,10C287.2,42,288,46.3,288,50.9z M281.5,50.9c0-3.5-0.6-6.9-1.7-10.1c-1.1-3.2-2.8-6-5-8.4
		c-2.2-2.4-4.8-4.3-7.9-5.7c-3.1-1.4-6.6-2.1-10.5-2.1c-3.9,0-7.4,0.7-10.5,2.1c-3.1,1.4-5.7,3.3-7.9,5.7c-2.2,2.4-3.8,5.2-5,8.4
		c-1.1,3.2-1.7,6.5-1.7,10.1c0,3.5,0.6,6.9,1.7,10.1c1.1,3.2,2.8,6,5,8.4c2.2,2.4,4.8,4.3,7.9,5.7c3.1,1.4,6.6,2.1,10.5,2.1
		c3.9,0,7.4-0.7,10.5-2.1c3.1-1.4,5.7-3.3,7.9-5.7c2.2-2.4,3.8-5.2,5-8.4C280.9,57.8,281.5,54.4,281.5,50.9z"/>
	<path class="st3" d="M364.4,50.9c0,4.6-0.8,8.8-2.4,12.7c-1.6,3.9-3.8,7.2-6.6,10c-2.8,2.8-6.1,5-10,6.6c-3.8,1.6-8,2.4-12.5,2.4
		c-4.5,0-8.7-0.8-12.5-2.4s-7.2-3.8-10-6.6s-5-6.2-6.6-10c-1.6-3.9-2.4-8.1-2.4-12.7s0.8-8.8,2.4-12.7c1.6-3.9,3.8-7.2,6.6-10
		c2.8-2.8,6.1-5,10-6.6c3.8-1.6,8-2.4,12.5-2.4c4.5,0,8.7,0.8,12.5,2.4c3.8,1.6,7.2,3.8,10,6.6c2.8,2.8,5,6.2,6.6,10
		C363.6,42,364.4,46.3,364.4,50.9z M357.9,50.9c0-3.5-0.6-6.9-1.7-10.1c-1.1-3.2-2.8-6-5-8.4c-2.2-2.4-4.8-4.3-7.9-5.7
		c-3.1-1.4-6.6-2.1-10.5-2.1c-3.9,0-7.4,0.7-10.5,2.1c-3.1,1.4-5.7,3.3-7.9,5.7c-2.2,2.4-3.8,5.2-5,8.4c-1.1,3.2-1.7,6.5-1.7,10.1
		c0,3.5,0.6,6.9,1.7,10.1c1.1,3.2,2.8,6,5,8.4c2.2,2.4,4.8,4.3,7.9,5.7c3.1,1.4,6.6,2.1,10.5,2.1c3.9,0,7.4-0.7,10.5-2.1
		c3.1-1.4,5.7-3.3,7.9-5.7s3.8-5.2,5-8.4C357.3,57.8,357.9,54.4,357.9,50.9z"/>
	<path class="st3" d="M387.2,47.8L387.2,47.8L416,20.6h8.8L394.4,48l32.2,33h-9.1l-30.2-32.2h-0.1v32.2h-6.1V20.6h6.1V47.8z"/>
	<path class="st3" d="M493.3,81.1l0.3-42.8h-0.3l-15.7,42.8h-10.2l-15.3-42.8h-0.3l0.3,42.8h-13.7V20.6h20.8l13.8,38.8h0.3
		l13.2-38.8h21.1v60.4H493.3z"/>
	<path class="st3" d="M524.7,81.1V20.6h40.6v12.3h-26.6v11.4h25.1v11.7h-25.1v12.5h28.1v12.5L524.7,81.1L524.7,81.1z"/>
</g>
<g>
	<path class="st3" d="M197.6,112.8c0,2.5-0.5,4.7-1.4,6.6s-2.2,3.4-3.7,4.5c-1.5,1.2-3.3,2.1-5.2,2.6c-1.9,0.6-3.9,0.8-5.9,0.8
		h-10.8v-29H181c2,0,4.1,0.2,6.1,0.7c2,0.5,3.8,1.3,5.3,2.4c1.6,1.1,2.8,2.6,3.8,4.4C197.2,107.8,197.6,110.1,197.6,112.8z
		 M190.3,112.8c0-1.6-0.3-3-0.8-4.1c-0.5-1.1-1.2-1.9-2.1-2.6s-1.9-1.1-3-1.4c-1.1-0.3-2.3-0.4-3.5-0.4h-3.5v17h3.3
		c1.3,0,2.5-0.1,3.6-0.4c1.2-0.3,2.2-0.8,3.1-1.4c0.9-0.7,1.6-1.5,2.1-2.6C190.1,115.8,190.3,114.4,190.3,112.8z"/>
	<path class="st3" d="M249.1,127.4v-29h19.5v5.9h-12.7v5.5h12v5.6h-12v6h13.5v6L249.1,127.4L249.1,127.4z"/>
	<path class="st3" d="M339.7,127.4l-11.7-19h-0.1l0.2,19h-6.8v-29h8l11.6,18.9h0.1l-0.2-18.9h6.8v29H339.7z"/>
	<path class="st3" d="M412.9,104.4v23h-7v-23h-8.2v-6H421v6H412.9z"/>
	<path class="st3" d="M488.4,127.4l-2.3-5.7h-11.2l-2.1,5.7h-7.6l12.2-29h6.8l12,29H488.4z M480.6,106.2l-3.7,10h7.3L480.6,106.2z"
		/>
	<path class="st3" d="M545.8,127.4v-29h7v22.9H564v6.1H545.8z"/>
</g>
<line class="st4" x1="140.6" y1="6" x2="140.6" y2="135.5"/>
</svg>
