<svg xmlns="http://www.w3.org/2000/svg" xmlns:xlink="http://www.w3.org/1999/xlink" viewBox="0 0 114.62 119.53"><defs><style>.cls-1{fill:url(#linear-gradient);}.cls-2{fill:url(#linear-gradient-2);}</style><linearGradient id="linear-gradient" x1="7.5" y1="714.6" x2="113.12" y2="642.76" gradientTransform="translate(0 -621.89)" gradientUnits="userSpaceOnUse"><stop offset="0" stop-color="#936527"/><stop offset="1" stop-color="#fdf5a5"/></linearGradient><linearGradient id="linear-gradient-2" x1="7.59" y1="689.13" x2="44.04" y2="680.08" gradientTransform="translate(0 -621.89)" gradientUnits="userSpaceOnUse"><stop offset="0" stop-color="#8b5924"/><stop offset="1" stop-color="#fdf5a5" stop-opacity="0"/></linearGradient></defs><title>Asset 1</title><g id="Layer_2" data-name="Layer 2"><g id="Layer_1-2" data-name="Layer 1"><path class="cls-1" d="M114.62,21.85a52,52,0,0,1-.8,9,63.11,63.11,0,0,1-1.4,6.4c-2.8,11.1-21.8,43.6-22.5,58.1-.8,15.5,3.5,23.7,0,24.1-20.2,2.3-26.5-41.2-27.4-47.9,1,14.9-24.6,46.8-30.4,46.6a1.22,1.22,0,0,1-.9-.3c-3.7-2.7,4.7-23.1-8.7-46.1-14.2-24.5-27-37.5-21-52.4a28.45,28.45,0,0,1,4.9-8.3c5.8-6.4,14.3-7.5,26.7-3.6a116.73,116.73,0,0,1,17.4,7.4c28.4,14.4,47.6-1.6,47.6-1.6-35.2,9.7-41.4-2.6-41.4-2.6S70.62-1.45,95,.15a2.2,2.2,0,0,1,.8.1C110.92,1.45,114.62,11.75,114.62,21.85Z"/><path class="cls-2" d="M31.22,117.85c-3.7-2.7,4.7-23.1-8.7-46.1-14.2-24.5-27-37.5-21-52.4a28.45,28.45,0,0,1,4.9-8.3c-.4,4.5.7,15,4,20.2,7.1,11.1,29.6,24,31.8,40.3C43.82,82.55,36.72,105,31.22,117.85Z"/></g></g></svg>